<?xml version="1.0" encoding="utf-8"?>
<!-- Generator: Adobe Illustrator 24.0.1, SVG Export Plug-In . SVG Version: 6.00 Build 0)  -->
<svg version="1.1" id="Layer_1" xmlns="http://www.w3.org/2000/svg" xmlns:xlink="http://www.w3.org/1999/xlink" x="0px" y="0px"
	 viewBox="0 0 500 500" style="enable-background:new 0 0 500 500;" xml:space="preserve">
<style type="text/css">
	.st0{fill:#EAEDED;}
	.st1{font-family:'OCRAExtended';}
	.st2{font-size:90.7758px;}
	.st3{font-family:'HelveticaRounded-BoldCond';}
	.st4{font-size:30.2586px;}
	.st5{fill:#EAEDED;stroke:#EAEDED;stroke-width:3;stroke-miterlimit:10;}
	.st6{font-family:'SitkaBanner-Bold';}
	.st7{font-size:18.9499px;}
</style>
<g>
	<path class="st0" d="M292.5,55H168.2c-1.6,0-3,1.1-3,2.5v148.8c0,1.4,1.3,2.5,3,2.5H257c0.8,0,1.5-0.3,2.1-0.7l35.5-29.8
		c0.5-0.5,0.9-1.1,0.9-1.8V57.5C295.4,56.1,294.1,55,292.5,55z M171.2,60h118.3v114.1H257c-1.6,0-3,1.1-3,2.5v27.3h-82.8V60z
		 M285.3,179l-25.4,21.3V179H285.3z"/>
	<path class="st0" d="M180.1,87.3h100.6c1.6,0,3-1.1,3-2.5V69.9c0-1.4-1.3-2.5-3-2.5H180.1c-1.6,0-3,1.1-3,2.5v14.9
		C177.1,86.1,178.4,87.3,180.1,87.3z M183,72.4h94.7v9.9H183V72.4z"/>
	<path class="st0" d="M180.1,97.2h100.5c1.5,0,2.8-0.9,3-2.1c0.3-1.5-1.1-2.8-2.9-2.8H180.2c-1.5,0-2.8,0.9-3,2.1
		C176.9,95.9,178.3,97.2,180.1,97.2z"/>
	<path class="st0" d="M180.1,107.1h100.5c1.5,0,2.8-0.9,3-2.1c0.3-1.5-1.1-2.8-2.9-2.8H180.2c-1.5,0-2.8,0.9-3,2.1
		C176.9,105.8,178.3,107.1,180.1,107.1z"/>
	<path class="st0" d="M245.1,112.1h-65c-1.5,0-2.8,0.9-3,2.1c-0.3,1.5,1.1,2.8,2.9,2.8h65c1.5,0,2.8-0.9,3-2.1
		C248.3,113.4,246.9,112.1,245.1,112.1z"/>
	<path class="st0" d="M254,117h2.9c1.5,0,2.8-0.9,3-2.1c0.3-1.5-1.1-2.8-2.9-2.8h-2.9c-1.5,0-2.8,0.9-3,2.1
		C250.8,115.7,252.2,117,254,117z"/>
	<path class="st0" d="M233.3,131.9h-53.2c-1.6,0-3,1.1-3,2.5v14.9c0,1.4,1.3,2.5,3,2.5h53.2c1.6,0,3-1.1,3-2.5v-14.9
		C236.3,133,234.9,131.9,233.3,131.9z M230.3,146.8H183v-9.9h47.3V146.8z"/>
	<path class="st0" d="M212.6,156.7h-32.4c-1.5,0-2.8,0.9-3,2.1c-0.3,1.5,1.1,2.8,2.9,2.8h32.4c1.5,0,2.8-0.9,3-2.1
		C215.8,158,214.4,156.7,212.6,156.7z"/>
	<path class="st0" d="M194.8,166.6h-14.7c-1.5,0-2.8,0.9-3,2.1c-0.3,1.5,1.1,2.8,2.9,2.8h14.7c1.5,0,2.8-0.9,3-2.1
		C198,168,196.6,166.6,194.8,166.6z"/>
</g>
<text transform="matrix(0.9472 0 0 1 23 292.6816)" class="st0 st1 st2">ASB</text>
<text transform="matrix(0.9472 0 0 1 221.5 257.3799)" class="st0 st3 st4">AMAZING SELL BILL</text>
<text transform="matrix(0.9472 0 0 1 219.5 290.1602)" class="st0 st3 st4">Bill At FingerTip</text>
<line class="st5" x1="199.9" y1="229.6" x2="199.9" y2="299"/>
<text transform="matrix(0.9247 0 0 1 179.793 190.1392)" class="st0 st6 st7">INVOICE</text>
</svg>
